<?xml version="1.0" standalone="no"?>
<!DOCTYPE svg PUBLIC "-//W3C//DTD SVG 20010904//EN"
 "http://www.w3.org/TR/2001/REC-SVG-20010904/DTD/svg10.dtd">
<svg version="1.0" xmlns="http://www.w3.org/2000/svg"
 width="700.000000pt" height="700.000000pt" viewBox="0 0 700.000000 700.000000"
 preserveAspectRatio="xMidYMid meet">
<metadata>
Created by potrace 1.14, written by Peter Selinger 2001-2017
</metadata>
<g transform="translate(0.000000,700.000000) scale(0.100000,-0.100000)"
fill="#000000" stroke="none">
<path d="M3408 6399 c-81 -11 -179 -45 -255 -90 -72 -44 -178 -150 -222 -222
-101 -170 -124 -380 -60 -564 10 -31 16 -60 12 -63 -5 -4 -240 -175 -523 -380
-283 -205 -521 -377 -527 -382 -9 -7 -28 1 -61 26 -110 80 -275 136 -402 136
-92 0 -201 -28 -300 -76 -225 -112 -363 -337 -363 -594 0 -113 19 -195 71
-300 51 -106 187 -241 292 -292 102 -49 147 -60 269 -67 l104 -6 204 -625
c111 -344 203 -627 203 -630 0 -3 -23 -20 -51 -39 -72 -49 -161 -150 -203
-231 -193 -367 -8 -817 389 -947 68 -22 98 -26 200 -26 106 -1 130 3 204 28
204 69 371 239 428 432 l18 63 665 0 665 0 18 -63 c29 -97 83 -184 166 -268
86 -85 150 -125 266 -165 70 -24 95 -28 200 -27 102 0 132 4 200 26 338 111
532 460 445 801 -37 147 -139 296 -259 377 -28 19 -51 36 -51 39 0 3 92 286
203 630 l204 625 109 6 c183 11 298 62 430 193 44 45 94 106 111 136 71 125
101 277 83 411 -22 159 -82 280 -196 395 -115 117 -300 194 -464 194 -127 0
-292 -56 -401 -136 l-49 -36 -527 384 c-289 210 -530 386 -535 389 -4 3 1 31
11 62 93 269 1 573 -224 744 -141 108 -321 155 -497 132z m-301 -1196 c107
-82 246 -127 393 -127 147 0 286 45 393 128 27 21 54 35 61 33 10 -4 1041
-750 1058 -766 5 -4 -1 -33 -12 -65 -64 -180 -39 -395 64 -565 40 -64 138
-166 196 -202 22 -13 38 -29 36 -35 -4 -11 -364 -1118 -392 -1206 l-16 -48
-87 0 c-76 0 -171 -18 -242 -45 -13 -5 -73 70 -266 337 -137 189 -253 349
-257 356 -4 7 6 28 26 51 187 220 215 556 66 809 -18 32 -72 96 -119 144 -72
72 -101 93 -180 132 -120 58 -197 76 -330 76 -131 0 -229 -23 -340 -81 -91
-48 -210 -152 -259 -230 -18 -27 -38 -48 -44 -46 -11 4 -515 168 -714 232
l-113 36 6 33 c9 43 -11 182 -35 252 -11 32 -18 59 -15 62 15 15 1061 772
1067 772 4 0 29 -16 55 -37z m-742 -1478 l410 -134 2 -93 c3 -212 77 -376 234
-522 84 -78 212 -146 324 -172 108 -25 296 -16 394 19 41 14 76 25 77 24 0 -1
116 -161 257 -355 l256 -352 -50 -75 c-29 -43 -64 -111 -80 -158 l-28 -82
-661 0 -661 0 -28 81 c-91 264 -339 444 -611 444 l-88 0 -16 48 c-28 88 -388
1195 -392 1206 -2 6 14 22 37 36 51 31 162 143 185 186 10 19 21 34 24 34 3 0
190 -61 415 -135z"/>
</g>
</svg>
